Coordinates
version=1
nRows=26
nColumns=22
inDegrees=yes

Units are S.I. units (second, meters, Newtons, ...)
If the header above contains a line with 'inDegrees', this indicates whether rotational values are in degrees (yes) or radians (no).

endheader
time	pelvis_tilt	pelvis_list	pelvis_rotation	pelvis_tx	pelvis_ty	pelvis_tz	hip_flexion_r	hip_adduction_r	hip_rotation_r	knee_angle_r	ankle_angle_r	subtalar_angle_r	hip_flexion_l	hip_adduction_l	hip_rotation_l	knee_angle_l	ankle_angle_l	subtalar_angle_l	lumbar_extension	lumbar_bending	lumbar_rotation
      0.01000000	     -8.71136606	      1.92407755	    -34.28387247	     -1.42423778	      0.88503699	     -0.53111539	     11.37441825	      0.86122077	     -0.68837975	    -11.39203335	     12.98932043	     -0.65404276	     11.57924103	     -6.87615999	     -4.57486143	    -16.95829616	     16.78325706	      3.64409995	      1.85326662	      1.08432920	     16.15223930
      0.02000000	     -8.72595470	      1.91684227	    -34.27252556	     -1.42424304	      0.88501916	     -0.53102753	     11.35979728	      0.88175481	     -0.68091944	    -11.35921221	     13.00359946	     -0.65743436	     11.59247796	     -6.89378305	     -4.54681249	    -16.97023931	     16.79863927	      3.64501690	      1.86014670	      1.08518886	     16.15358047
      0.03000000	     -8.72918737	      1.91616157	    -34.26840352	     -1.42423925	      0.88501046	     -0.53090690	     11.35506469	      0.89088206	     -0.68226894	    -11.35908937	     13.00314555	     -0.65777379	     11.59258805	     -6.90161116	     -4.54306309	    -16.97526102	     16.79996215	      3.64477384	      1.86272203	      1.07033394	     16.15150841
      0.04000000	     -8.76077117	      1.88408633	    -34.20881659	     -1.42419615	      0.88497374	     -0.53085633	     11.32636188	      0.93401803	     -0.74269939	    -11.30806069	     12.99443371	     -0.67838433	     11.64528459	     -6.94478396	     -4.46421487	    -17.04534615	     16.84316464	      3.63883367	      1.86818360	      1.10174594	     16.09508940
      0.05000000	     -8.76221961	      1.87953686	    -34.19183518	     -1.42416289	      0.88495567	     -0.53074044	     11.30753680	      0.94200417	     -0.74796126	    -11.29261326	     13.01384384	     -0.68214138	     11.66224768	     -6.95291615	     -4.43513913	    -17.08872417	     16.84932298	      3.63748135	      1.86591767	      1.08619661	     16.10026906
      0.06000000	     -8.76721455	      1.86759024	    -34.16245971	     -1.42410935	      0.88492857	     -0.53063006	     11.28470452	      0.95734638	     -0.76721502	    -11.27568895	     13.04140764	     -0.68746663	     11.68542346	     -6.96752716	     -4.39449140	    -17.14415539	     16.87191986	      3.63388756	      1.85998617	      1.07839449	     16.08612355
      0.07000000	     -8.77088014	      1.86582214	    -34.15603105	     -1.42403346	      0.88490738	     -0.53046433	     11.27708225	      0.96645032	     -0.76876770	    -11.27997461	     13.04317659	     -0.68768261	     11.68246253	     -6.97715249	     -4.38872621	    -17.15318535	     16.87413369	      3.63327609	      1.86625267	      1.06074228	     16.08469445
      0.08000000	     -8.78462485	      1.82709474	    -34.09954066	     -1.42392938	      0.88486533	     -0.53039148	     11.24924517	      1.00281840	     -0.83250272	    -11.27762170	     13.09967953	     -0.69934205	     11.72096718	     -7.01588059	     -4.31099564	    -17.24557437	     16.94627604	      3.62028820	      1.85077281	      1.08521874	     16.03305122
      0.09000000	     -8.79701790	      1.80850934	    -34.07556452	     -1.42383234	      0.88482981	     -0.53026229	     11.24489387	      1.02751933	     -0.86188986	    -11.29494341	     13.11303574	     -0.70897929	     11.73672097	     -7.04076720	     -4.26325060	    -17.28799842	     16.97234000	      3.60873992	      1.84870523	      1.08682898	     16.02736395
      0.10000000	     -8.80134264	      1.80668512	    -34.07002725	     -1.42369499	      0.88480129	     -0.53008397	     11.23686571	      1.03585391	     -0.86075951	    -11.30294272	     13.11428453	     -0.70908669	     11.73012855	     -7.04943234	     -4.25778693	    -17.29761475	     16.97356380	      3.60817367	      1.85721241	      1.06856628	     16.02916527
      0.11000000	     -8.80443032	      1.78127772	    -34.05316312	     -1.42357382	      0.88476863	     -0.52993468	     11.22955445	      1.06233008	     -0.87880348	    -11.34322834	     13.16781992	     -0.71806410	     11.73125873	     -7.07612434	     -4.21314036	    -17.34401923	     17.02394431	      3.59812907	      1.83988419	      1.06948898	     16.03131418
      0.12000000	     -8.80973860	      1.77947800	    -34.04765829	     -1.42340011	      0.88473998	     -0.52973630	     11.22066660	      1.07119670	     -0.87784005	    -11.35289777	     13.16859657	     -0.71825118	     11.72257113	     -7.08514341	     -4.20828381	    -17.35283133	     17.02480222	      3.59758412	      1.85050369	      1.05029841	     16.03198684
      0.13000000	     -8.81298888	      1.75838034	    -34.03306012	     -1.42323338	      0.88471243	     -0.52954805	     11.21383124	      1.09471008	     -0.90097510	    -11.39634982	     13.21759255	     -0.73013360	     11.71041353	     -7.10850483	     -4.17206086	    -17.37575304	     17.06085159	      3.59029158	      1.83969051	      1.04625792	     16.02957755
      0.14000000	     -8.81950253	      1.75754104	    -34.02822344	     -1.42303424	      0.88468484	     -0.52933019	     11.20393272	      1.10380694	     -0.89995943	    -11.40581660	     13.21826448	     -0.73032424	     11.70060858	     -7.11739788	     -4.16831989	    -17.38310397	     17.06108296	      3.58998327	      1.85159285	      1.02629402	     16.02890671
      0.15000000	     -8.82664075	      1.75687807	    -34.02349439	     -1.42283145	      0.88465790	     -0.52910088	     11.19391351	      1.11385010	     -0.89932937	    -11.41591020	     13.22099851	     -0.73061267	     11.69022469	     -7.12737374	     -4.16433359	    -17.38862148	     17.06231897	      3.58979273	      1.86269408	      1.00634140	     16.02764828
      0.16000000	     -8.83557802	      1.74381129	    -34.01908561	     -1.42260610	      0.88463135	     -0.52885569	     11.18249192	      1.13591420	     -0.91036801	    -11.44159119	     13.27159300	     -0.73751217	     11.65840493	     -7.14829460	     -4.14873560	    -17.36624405	     17.08689761	      3.59153513	      1.86810721	      1.00230211	     16.01634951
      0.17000000	     -8.84320065	      1.74513910	    -34.01595240	     -1.42238740	      0.88460643	     -0.52862039	     11.17166421	      1.14422168	     -0.91069297	    -11.44975639	     13.27297755	     -0.73790454	     11.64771858	     -7.15682970	     -4.14742145	    -17.37028132	     17.08805435	      3.59166545	      1.87862765	      0.98421697	     16.01344752
      0.18000000	     -8.85203846	      1.74304187	    -34.01667601	     -1.42213391	      0.88458383	     -0.52836402	     11.15496913	      1.15617926	     -0.91687577	    -11.45506434	     13.29738486	     -0.74232668	     11.61680305	     -7.16893544	     -4.15615410	    -17.34145487	     17.10579144	      3.59502576	      1.89120978	      0.97531891	     15.99373923
      0.19000000	     -8.85997424	      1.74613582	    -34.01724662	     -1.42190743	      0.88456266	     -0.52812773	     11.14377725	      1.16303906	     -0.91633289	    -11.46157076	     13.29876298	     -0.74253470	     11.60695662	     -7.17638715	     -4.15463478	    -17.34442848	     17.10698249	      3.59537331	      1.90035016	      0.96020775	     15.99065759
      0.20000000	     -8.86954715	      1.75048526	    -34.02499143	     -1.42165136	      0.88454292	     -0.52786595	     11.12472167	      1.17123749	     -0.90939468	    -11.45142069	     13.32409864	     -0.74527504	     11.57781983	     -7.18409778	     -4.16463061	    -17.31193941	     17.12568295	      3.60026729	      1.91547654	      0.94968049	     15.97267563
      0.21000000	     -8.87626913	      1.75493095	    -34.02728277	     -1.42141207	      0.88453073	     -0.52763974	     11.11273948	      1.17501376	     -0.90752941	    -11.45605240	     13.32563530	     -0.74542215	     11.56983952	     -7.18905500	     -4.16227512	    -17.31672691	     17.12623134	      3.60090609	      1.92436696	      0.93850612	     15.97151615
      0.22000000	     -8.88335826	      1.76920949	    -34.03594348	     -1.42116271	      0.88451543	     -0.52739310	     11.08745725	      1.17280512	     -0.88878400	    -11.42293232	     13.35467427	     -0.74715351	     11.56040307	     -7.18577437	     -4.16222267	    -17.31089705	     17.13645688	      3.60770699	      1.94078979	      0.91912480	     15.97194093
      0.23000000	     -8.88716643	      1.78219400	    -34.03805890	     -1.42091520	      0.88451380	     -0.52717018	     11.06679622	      1.16747384	     -0.87276380	    -11.40518271	     13.36642758	     -0.74848328	     11.56115235	     -7.18090951	     -4.15842773	    -17.32637006	     17.13334869	      3.61391668	      1.95218132	      0.90051952	     15.97801996
      0.24000000	     -8.89543999	      1.79789431	    -34.03696737	     -1.42065710	      0.88451134	     -0.52695622	     11.04884082	      1.16113348	     -0.86335253	    -11.38245694	     13.37831263	     -0.74963354	     11.56984650	     -7.17419327	     -4.15569257	    -17.34566998	     17.12688673	      3.61959732	      1.96942764	      0.88328057	     15.98431024
      0.25000000	     -8.90694594	      1.81539580	    -34.03088680	     -1.42039777	      0.88450418	     -0.52674843	     11.03387185	      1.15372188	     -0.85806665	    -11.35740125	     13.38937100	     -0.75070109	     11.58431334	     -7.16798758	     -4.15185546	    -17.36895294	     17.11806647	      3.62518852	      1.98886601	      0.86661447	     15.99061401
      0.26000000	     -8.92261982	      1.83364343	    -34.02115702	     -1.42013550	      0.88449319	     -0.52654346	     11.02150076	      1.14776062	     -0.85873072	    -11.33033906	     13.40006519	     -0.75169820	     11.60154761	     -7.16230783	     -4.14900663	    -17.39105741	     17.10944252	      3.63084301	      2.01011964	      0.85159028	     15.99562111
